# xmcd CD database file
#
# Track frame offsets:
#	150
#	14704
#	32820
#	41661
#	51517
#	64813
#	76763
#	89759
#	100575
#	115872
#	127194
#	142732
#	157266
#	169304
#	184367
#	198964
#	209597
#	230613
#	242357
#	257343
#	272765
#	286046
#
# Disc length: 3999 seconds
#
# Revision: 0
# Processed by: cddbd v1.5.2PL0 Copyright (c) Steve Scherf et al.
# Submitted via: ACXtractor (MTCDDB.DLL V2003.12.21)
#
DISCID=420f9d16
DTITLE=Various Artist - Just Country
DYEAR=1986
DGENRE=Country
TTITLE0=The Devils Right Hand/ The Highwaymen
TTITLE1=Way Out West/ Blundell and Reyne
TTITLE2=Going Steady/ Faron Young
TTITLE3=Rub It In/ Billy Crash Craddock
TTITLE4=The Mountain Moved/ Billy Dean
TTITLE5=Don't Make My Brown Eyes Blue/ Crystal Gayle
TTITLE6=Misty/ Ray Stevens
TTITLE7=Ain't It Funny What a Fool Will Do/ George Jones
TTITLE8=My Love Will Follow You/ Clint Beaty
TTITLE9=Under This Old Hat/ Chris Ledoux
TTITLE10=Shotgun/ Tanya Tucker
TTITLE11=Call Of The wild/ Chris Ledoux
TTITLE12=We Must Have Been out of our Minds/ George Jones
TTITLE13=Anothe Done Somebody Wrong Song/ Billie Jo Spears
TTITLE14=Arms Of Mary/ Kieth Urban
TTITLE15=Country Junction/ Tennessee Ernie Ford
TTITLE16=The Road Goes On Forever/ The Highwaymen
TTITLE17=He Walks Like A Man/ Jody Miller
TTITLE18=Haiti Cherie/ Harry Belafonte
TTITLE19=Island in the Sun
TTITLE20=Round the Bay of Mexico
TTITLE21=Come Back Liza
EXTD=ID3G:   2 YEAR: 1986
EXTT0=
EXTT1=
EXTT2=
EXTT3=
EXTT4=
EXTT5=
EXTT6=
EXTT7=
EXTT8=
EXTT9=
EXTT10=
EXTT11=
EXTT12=
EXTT13=
EXTT14=
EXTT15=
EXTT16=
EXTT17=
EXTT18=
EXTT19=
EXTT20=
EXTT21=
PLAYORDER=
